Coordinates
version=1
nRows=29
nColumns=24
inDegrees=yes

Units are S.I. units (second, meters, Newtons, ...)
Angles are in degrees.

endheader
time	pelvis_tilt	pelvis_list	pelvis_rotation	pelvis_tx	pelvis_ty	pelvis_tz	hip_flexion_r	hip_adduction_r	hip_rotation_r	knee_angle_r	ankle_angle_r	subtalar_angle_r	mtp_angle_r	hip_flexion_l	hip_adduction_l	hip_rotation_l	knee_angle_l	ankle_angle_l	subtalar_angle_l	mtp_angle_l	lumbar_extension	lumbar_bending	lumbar_rotation
      2.64000000	     13.52060658	     -0.29765812	     -5.75712431	     -0.56505636	      0.94106972	      0.02340784	    -24.55897177	     -0.92931613	      4.51338653	    -11.47335426	     30.73965472	     11.51784725	     15.42247323	      3.10480575	     -0.82324507	    -23.21189949	     -2.96526587	      6.07511992	     27.57018658	     37.43893967	    -24.09850095	      1.84921045	      6.36817932
      2.64500000	     13.52226950	     -0.35725107	     -5.85931352	     -0.56013034	      0.94044192	      0.02315031	    -24.66145871	     -0.97233286	      4.56889615	    -11.93506764	     30.87142769	     11.68571882	     15.48851965	      3.17820406	     -0.83313405	    -22.47952919	     -3.64995020	      5.92539957	     26.78379572	     37.37811435	    -24.06617884	      1.74955671	      6.40342437
      2.65000000	     13.50418443	     -0.41075226	     -5.95009832	     -0.55517051	      0.93984079	      0.02286425	    -24.73004645	     -1.01832262	      4.58802169	    -12.42429350	     30.99005602	     11.89155120	     15.58534139	      3.26926414	     -0.83358500	    -21.68146158	     -4.34294057	      5.72296591	     25.91636437	     37.30542943	    -24.00622986	      1.64657586	      6.44801365
      2.65500000	     13.50086613	     -0.45805696	     -6.03337243	     -0.55022771	      0.93930138	      0.02254199	    -24.79256222	     -1.07321186	      4.58817877	    -12.95422649	     31.08585535	     12.12062673	     15.71037624	      3.33833753	     -0.81766583	    -20.83198610	     -5.02408904	      5.46301178	     24.96198774	     37.21768879	    -23.96713422	      1.53741218	      6.47301108
      2.66000000	     13.47466649	     -0.48713789	     -6.09859100	     -0.54527335	      0.93879077	      0.02215589	    -24.80088231	     -1.14270760	      4.53715618	    -13.54365690	     31.15944810	     12.39595898	     15.89239233	      3.42727466	     -0.77474503	    -19.91322133	     -5.68761313	      5.13409764	     23.91779714	     37.11293832	    -23.89721627	      1.42007124	      6.44228011
      2.66500000	     13.46291232	     -0.50760613	     -6.15542782	     -0.54032636	      0.93836058	      0.02172935	    -24.79878821	     -1.22440867	      4.45121296	    -14.18131521	     31.20584162	     12.70535418	     16.14671119	      3.49435173	     -0.71359049	    -18.97278456	     -6.33527767	      4.77625523	     22.83624045	     36.99574084	    -23.84671504	      1.29400258	      6.40934718
      2.67000000	     13.45364671	     -0.51467540	     -6.21384730	     -0.53535905	      0.93800987	      0.02126978	    -24.79615368	     -1.32728806	      4.36961358	    -14.81234520	     31.20523601	     13.02589092	     16.42285113	      3.56051815	     -0.63223799	    -18.04210950	     -6.99279634	      4.40133585	     21.67649484	     36.86410148	    -23.79450951	      1.15504645	      6.40691200
      2.67500000	     13.44865483	     -0.51236114	     -6.25840823	     -0.53042316	      0.93773001	      0.02075748	    -24.75845980	     -1.44005618	      4.24943497	    -15.51830387	     31.16995536	     13.40353633	     16.75193300	      3.61815886	     -0.53259057	    -17.09312166	     -7.63238412	      4.02740965	     20.47591685	     36.71700642	    -23.75316131	      1.01148268	      6.35975424
      2.68000000	     13.45111892	     -0.50324321	     -6.29297058	     -0.52545667	      0.93755785	      0.02019311	    -24.70432548	     -1.56561205	      4.07268699	    -16.25124080	     30.86883569	     13.72281089	     19.62599503	      3.65342699	     -0.42086504	    -16.16394301	     -8.25140367	      3.68322467	     19.38274672	     36.22923422	    -23.71512117	      0.86681058	      6.33113906
      2.68500000	     13.42695888	     -0.48449594	     -6.30617072	     -0.52052891	      0.93741484	      0.01957934	    -24.59451408	     -1.69109606	      3.89768387	    -17.04613272	     30.76491464	     14.12413257	     19.79738357	      3.73581793	     -0.29916317	    -15.23443725	     -8.90527840	      3.36269065	     18.19039302	     36.05612286	    -23.65342072	      0.72217502	      6.27349264
      2.69000000	     13.41364689	     -0.44599807	     -6.31434115	     -0.51559115	      0.93735609	      0.01889996	    -24.45749009	     -1.85175680	      3.65511612	    -17.91028428	     30.61157879	     14.65691401	     20.12112485	      3.79450397	     -0.14830378	    -14.33949110	     -9.53777590	      3.08348458	     17.04528529	     35.84406912	    -23.60175568	      0.56280434	      6.20783659
      2.69500000	     13.43469627	     -0.41242970	     -6.32239282	     -0.51064188	      0.93742844	      0.01822122	    -24.34226636	     -2.01495384	      3.42044674	    -18.77392222	     30.15935184	     15.07217819	     23.06284461	      3.80614094	     -0.00321754	    -13.53048936	    -10.17889197	      2.95726014	     16.07920511	     34.60373670	    -23.58848937	      0.40460913	      6.14609929
      2.70000000	     13.40917381	     -0.37157187	     -6.30056354	     -0.50573583	      0.93749874	      0.01745049	    -24.12908372	     -2.18042110	      3.13518291	    -19.74383232	     29.90326520	     15.66672051	     23.27013808	      3.87648468	      0.14902751	    -12.71851666	    -10.82557331	      2.81462959	     15.06326026	     34.37980848	    -23.53078910	      0.25926571	      6.06282890
      2.70500000	     13.38674508	     -0.29339842	     -6.27770971	     -0.50076758	      0.93764182	      0.01663416	    -23.88443870	     -2.40093005	      2.78303023	    -20.77130401	     29.54200204	     16.34944881	     23.75993622	      3.91188497	      0.34672218	    -11.97367131	    -11.41606176	      2.74790009	     14.16622483	     34.04277062	    -23.46444657	      0.07946276	      5.96636117
      2.71000000	     13.47226192	     -0.25422310	     -6.25500491	     -0.49583903	      0.93801852	      0.01585291	    -23.75845519	     -2.59082902	      2.48726331	    -21.74529206	     28.83085142	     16.79605760	     27.66519250	      3.81299245	      0.50390334	    -11.33354218	    -12.01432185	      2.88028603	     13.50528491	     31.83271226	    -23.52798935	     -0.07398545	      5.90624967
      2.71500000	     13.40955174	     -0.20788940	     -6.19777716	     -0.49096256	      0.93821186	      0.01497907	    -23.38816584	     -2.77906892	      2.10692674	    -22.91133025	     28.39078555	     17.57345670	     27.90957754	      3.90611207	      0.64430524	    -10.72948348	    -12.66256342	      3.00089970	     12.89342525	     31.56930344	    -23.43320177	     -0.19956986	      5.81722657
      2.72000000	     13.45383010	     -0.15191925	     -6.14394424	     -0.48601815	      0.93864111	      0.01413100	    -23.14506405	     -2.99131913	      1.74339121	    -24.00502531	     27.53330226	     18.09436606	     31.54600436	      3.82885878	      0.80284016	    -10.22543127	    -13.24226450	      3.36376337	     12.57151861	     28.75631805	    -23.44808919	     -0.35001357	      5.71801088
      2.72500000	     13.42079718	     -0.06994711	     -6.09594257	     -0.48112984	      0.93899323	      0.01324470	    -22.73778764	     -3.24546409	      1.34488998	    -25.26554205	     26.92511534	     18.92196982	     31.80309151	      3.81787735	      0.98153849	     -9.76994119	    -13.75712678	      3.56722694	     12.14906998	     28.46124258	    -23.38029457	     -0.51639980	      5.62827964
      2.73000000	     13.47498853	     -0.02193589	     -6.02540942	     -0.47622683	      0.93952931	      0.01238447	    -22.43575152	     -3.46241261	      0.96053004	    -26.45685720	     25.92707462	     19.48271455	     35.52790585	      3.69765680	      1.11508726	     -9.42416511	    -14.29518880	      4.06748156	     12.06499739	     25.61374328	    -23.41078344	     -0.64965220	      5.53788268
      2.73500000	     13.47770188	      0.04332486	     -5.98002935	     -0.47139262	      0.94002579	      0.01152362	    -21.99922171	     -3.72312765	      0.57117788	    -27.80115247	     25.14226111	     20.35957215	     35.72637207	      3.59238478	      1.25757740	     -9.14612624	    -14.71719214	      4.35064376	     11.97921658	     25.43632722	    -23.38947639	     -0.80025801	      5.49081152
      2.74000000	     13.49994264	      0.11509969	     -5.90417847	     -0.46652085	      0.94061150	      0.01067002	    -21.58884344	     -3.97375836	      0.18401802	    -29.08307121	     23.95835286	     20.86085216	     39.68351067	      3.44956335	      1.39912141	     -8.93803050	    -15.14113285	      4.87848271	     12.08175267	     22.60619950	    -23.38358247	     -0.95127920	      5.36847856
      2.74500000	     13.47205740	      0.21079616	     -5.83308183	     -0.46172875	      0.94114008	      0.00975035	    -21.05282475	     -4.26878163	     -0.21638446	    -30.50553739	     22.98606914	     21.63499914	     40.15371388	      3.31764520	      1.56947756	     -8.71769716	    -15.43410857	      5.18129606	     12.07038382	     22.06931351	    -23.32957719	     -1.11377949	      5.27610024
      2.75000000	     13.54159183	      0.26450610	     -5.78566492	     -0.45690883	      0.94184178	      0.00904271	    -20.63277266	     -4.51969230	     -0.54849420	    -31.84480462	     21.72222061	     22.08380567	     43.60071318	      3.06081269	      1.66253810	     -8.73122311	    -15.75451156	      5.79846594	     12.52559053	     19.51186972	    -23.37836072	     -1.26730353	      5.20390616
      2.75500000	     13.56994879	      0.36722823	     -5.74266461	     -0.45212877	      0.94250169	      0.00829355	    -20.11719925	     -4.83560864	     -0.88791580	    -33.28170403	     20.67408759	     22.76827679	     43.72181682	      2.79775785	      1.81339075	     -8.72896705	    -15.92225829	      6.12240814	     12.85358940	     19.41408515	    -23.38076543	     -1.46361902	      5.13635090
      2.76000000	     13.58440535	      0.46383397	     -5.69382371	     -0.44737596	      0.94317151	      0.00756431	    -19.56452646	     -5.14126627	     -1.21234180	    -34.72602351	     19.56512079	     23.33718958	     43.94044834	      2.52210267	      1.95157983	     -8.78401938	    -16.03272221	      6.42038978	     13.19646972	     19.29065476	    -23.36869780	     -1.64832928	      5.04261005
      2.76500000	     13.59578886	      0.55341870	     -5.63881086	     -0.44265719	      0.94384682	      0.00692259	    -18.99799520	     -5.41639926	     -1.51016053	    -36.11939976	     18.19853340	     23.36043014	     48.26514199	      2.24418137	      2.06456721	     -8.89980285	    -16.16456985	      7.01262136	     13.78259936	     16.21371051	    -23.35607190	     -1.83224955	      4.93267146
      2.77000000	     13.64940220	      0.63797816	     -5.59863295	     -0.43796657	      0.94459483	      0.00628210	    -18.45908742	     -5.70920474	     -1.78323587	    -37.54144926	     17.08634890	     23.72666346	     48.25978092	      1.86091268	      2.18395536	     -9.04848841	    -16.14483043	      7.29843059	     14.23123102	     16.12204293	    -23.39141634	     -2.01167507	      4.85993741
      2.77500000	     13.67356550	      0.71496253	     -5.56939729	     -0.43331049	      0.94531277	      0.00576597	    -17.87174987	     -5.97220467	     -2.00299397	    -38.94231490	     15.94388688	     23.75300835	     49.56452055	      1.50546175	      2.27128983	     -9.28732864	    -16.15451566	      7.94433278	     14.99910064	     11.91810437	    -23.39512967	     -2.19504261	      4.77774080
      2.78000000	     13.72367904	      0.81593476	     -5.52459195	     -0.42867324	      0.94605876	      0.00521642	    -17.30512561	     -6.26663522	     -2.26450940	    -40.33776462	     14.97046503	     23.76788798	     49.47982720	      1.07460854	      2.40303254	     -9.48635211	    -16.01791235	      8.16751484	     15.50863500	     11.90882880	    -23.42714732	     -2.39568265	      4.67155649
